<svg xmlns="http://www.w3.org/2000/svg" xmlns:xlink="http://www.w3.org/1999/xlink" zoomAndPan="magnify" preserveAspectRatio="xMidYMid meet" version="1.0" viewBox="53.49 148.46 267.75 78"><defs><g/><clipPath id="993cfb4668"><path d="M 56.488281 151.464844 L 318.238281 151.464844 L 318.238281 223.464844 L 56.488281 223.464844 Z M 56.488281 151.464844 " clip-rule="nonzero"/></clipPath><clipPath id="309d7ba0d9"><path d="M 63.558594 158.238281 L 187.308594 158.238281 L 187.308594 216.738281 L 63.558594 216.738281 Z M 63.558594 158.238281 " clip-rule="nonzero"/></clipPath></defs><g clip-path="url(#993cfb4668)"><path stroke-linecap="butt" transform="matrix(0.750202, 0, 0, 0.749268, 56.489269, 151.465435)" fill="none" stroke-linejoin="miter" d="M -0.00131637 -0.000788908 L 348.904932 -0.000788908 L 348.904932 96.092971 L -0.00131637 96.092971 L -0.00131637 -0.000788908 " stroke="#000000" stroke-width="6" stroke-opacity="1" stroke-miterlimit="4"/></g><g clip-path="url(#309d7ba0d9)"><path fill="#fdb515" d="M 63.5625 158.238281 L 187.308594 158.238281 L 187.308594 216.738281 L 63.5625 216.738281 L 63.5625 158.238281 " fill-opacity="1" fill-rule="nonzero"/></g><g fill="#ffffff" fill-opacity="1"><g transform="translate(75.067696, 197.368288)"><g><path d="M 6.910156 0 L 9.210938 0 L 15.109375 -15.925781 L 18.371094 -7.164062 L 21.039062 0 L 23.339844 0 L 29.746094 -19.660156 L 27.160156 -19.660156 L 22.105469 -3.933594 L 16.289062 -19.660156 L 13.960938 -19.660156 L 8.144531 -3.960938 L 5.84375 -11.179688 L 3.117188 -19.660156 L 0.535156 -19.660156 Z M 6.910156 0 "/></g></g></g><g fill="#ffffff" fill-opacity="1"><g transform="translate(107.470662, 197.368288)"><g><path d="M 11.796875 0.363281 C 17.78125 0.363281 21.992188 -3.847656 21.992188 -9.832031 C 21.992188 -15.8125 17.78125 -20.027344 11.796875 -20.027344 C 5.8125 -20.027344 1.628906 -15.8125 1.628906 -9.832031 C 1.628906 -3.847656 5.8125 0.363281 11.796875 0.363281 Z M 4.15625 -9.832031 C 4.15625 -14.410156 7.273438 -17.554688 11.796875 -17.554688 C 16.320312 -17.554688 19.4375 -14.410156 19.4375 -9.832031 C 19.4375 -5.253906 16.320312 -2.105469 11.796875 -2.105469 C 7.273438 -2.105469 4.15625 -5.253906 4.15625 -9.832031 Z M 4.15625 -9.832031 "/></g></g></g><g fill="#ffffff" fill-opacity="1"><g transform="translate(133.191045, 197.368288)"><g><path d="M 2.863281 0 L 5.335938 0 L 5.335938 -7.050781 L 9.660156 -7.050781 L 14.464844 0 L 17.441406 0 L 12.5 -7.304688 C 15.363281 -8.003906 17.132812 -10.167969 17.132812 -13.339844 C 17.132812 -17.246094 14.4375 -19.660156 10.363281 -19.660156 L 2.863281 -19.660156 Z M 5.335938 -9.410156 L 5.335938 -17.300781 L 10.082031 -17.300781 C 12.949219 -17.300781 14.605469 -15.839844 14.605469 -13.339844 C 14.605469 -10.839844 12.949219 -9.410156 10.082031 -9.410156 Z M 5.335938 -9.410156 "/></g></g></g><g fill="#ffffff" fill-opacity="1"><g transform="translate(154.447019, 197.368288)"><g><path d="M 2.863281 0 L 9.660156 0 C 15.699219 0 19.746094 -4.015625 19.746094 -9.832031 C 19.746094 -15.644531 15.699219 -19.660156 9.660156 -19.660156 L 2.863281 -19.660156 Z M 5.335938 -2.359375 L 5.335938 -17.300781 L 9.550781 -17.300781 C 14.128906 -17.300781 17.21875 -14.296875 17.21875 -9.832031 C 17.21875 -5.363281 14.15625 -2.359375 9.660156 -2.359375 Z M 5.335938 -2.359375 "/></g></g></g><g fill="#000000" fill-opacity="1"><g transform="translate(214.364644, 196.769541)"><g><path d="M 2.078125 0 L 7.75 0 L 7.75 -4.859375 L 10.363281 -4.859375 C 15.363281 -4.859375 18.539062 -7.75 18.539062 -12.273438 C 18.539062 -16.796875 15.363281 -19.660156 10.363281 -19.660156 L 2.078125 -19.660156 Z M 7.695312 -9.605469 L 7.695312 -14.886719 L 9.832031 -14.886719 C 11.710938 -14.886719 12.808594 -13.875 12.808594 -12.246094 C 12.808594 -10.589844 11.710938 -9.605469 9.832031 -9.605469 Z M 7.695312 -9.605469 "/></g></g></g><g fill="#000000" fill-opacity="1"><g transform="translate(233.546709, 196.769541)"><g><path d="M 2.078125 0 L 15.785156 0 L 15.785156 -5.253906 L 7.75 -5.253906 L 7.75 -19.660156 L 2.078125 -19.660156 Z M 2.078125 0 "/></g></g></g><g fill="#000000" fill-opacity="1"><g transform="translate(250.032612, 196.769541)"><g><path d="M 0.140625 0 L 6.152344 0 L 7.21875 -2.78125 L 13.929688 -2.78125 L 15 0 L 21.035156 0 L 13.398438 -19.660156 L 7.78125 -19.660156 Z M 8.398438 -6.9375 L 10.589844 -13.03125 L 12.78125 -6.9375 Z M 8.398438 -6.9375 "/></g></g></g><g fill="#000000" fill-opacity="1"><g transform="translate(271.208709, 196.769541)"><g><path d="M 7.300781 0 L 12.949219 0 L 12.949219 -6.851562 L 20.109375 -19.660156 L 13.679688 -19.660156 L 10.109375 -12.609375 L 8.59375 -15.589844 L 6.515625 -19.660156 L 0.140625 -19.660156 L 7.300781 -6.824219 Z M 7.300781 0 "/></g></g></g></svg>