<svg xmlns="http://www.w3.org/2000/svg" xmlns:xlink="http://www.w3.org/1999/xlink" width="500" zoomAndPan="magnify" viewBox="0 0 375 374.999991" height="500" preserveAspectRatio="xMidYMid meet" version="1.0"><defs><g/></defs><g fill="#000000" fill-opacity="1"><g transform="translate(9.647732, 190.691355)"><g><path d="M 43.363281 0 L 72.332031 0 L 101.671875 -83.589844 L 131.011719 0 L 159.796875 0 L 201.5 -129.164062 L 170.5 -129.164062 L 158.136719 -89.863281 L 144.296875 -46.867188 L 129.351562 -89.863281 L 115.511719 -129.164062 L 87.648438 -129.164062 L 73.808594 -89.863281 L 59.046875 -47.421875 L 45.390625 -89.863281 L 33.03125 -129.164062 L 1.84375 -129.164062 Z M 43.363281 0 "/></g></g></g><g fill="#000000" fill-opacity="1"><g transform="translate(239.794793, 332.660486)"><g><path d="M 15.5 0 L 44.839844 0 L 44.839844 -35.980469 L 66.058594 -35.980469 C 97.242188 -35.980469 117.355469 -54.25 117.355469 -82.480469 C 117.355469 -110.898438 97.242188 -129.164062 66.058594 -129.164062 L 15.5 -129.164062 Z M 44.65625 -61.261719 L 44.65625 -103.515625 L 63.660156 -103.515625 C 78.976562 -103.515625 87.464844 -95.765625 87.464844 -82.296875 C 87.464844 -68.828125 78.976562 -61.261719 63.660156 -61.261719 Z M 44.65625 -61.261719 "/></g></g></g><path stroke-linecap="round" transform="matrix(1.852546, -2.358247, 2.359131, 1.85324, 75.155896, 350.259119)" fill="none" stroke-linejoin="miter" d="M 4.000568 -0.00030789 L 131.553984 0.000629077 " stroke="#fdb515" stroke-width="1" stroke-opacity="1" stroke-miterlimit="4"/><path stroke-linecap="butt" transform="matrix(1.852546, -2.358247, 2.359131, 1.85324, 75.155896, 350.259119)" fill-opacity="1" fill="#fdb515" fill-rule="nonzero" stroke-linejoin="miter" d="M 3.500521 -0.0000628993 C 3.499854 0.0981537 3.490846 0.196296 3.470864 0.293122 C 3.451906 0.389143 3.422999 0.483042 3.385167 0.574015 C 3.347335 0.664988 3.302626 0.751426 3.247383 0.83289 C 3.192944 0.915378 3.13002 0.991283 3.060438 1.060825 C 2.990857 1.130368 2.915643 1.192742 2.832967 1.24773 C 2.751315 1.301913 2.665056 1.348125 2.574188 1.386364 C 2.482515 1.42358 2.389088 1.452239 2.2931 1.471317 C 2.195284 1.490176 2.098566 1.499893 1.999288 1.50003 C 1.901839 1.500387 1.804684 1.490578 1.706798 1.471408 C 1.610741 1.452457 1.516807 1.423561 1.4258 1.385743 C 1.334793 1.347925 1.248542 1.301405 1.166023 1.246986 C 1.085333 1.192788 1.009399 1.129887 0.939831 1.060331 C 0.870263 0.990776 0.807865 0.91559 0.752857 0.832945 C 0.698653 0.751324 0.652424 0.665097 0.614171 0.574263 C 0.576941 0.482625 0.548271 0.389232 0.528381 0.292257 C 0.509295 0.196305 0.500599 0.0988193 0.500462 -0.00042124 C 0.500105 -0.0978335 0.509113 -0.195976 0.529095 -0.292801 C 0.548053 -0.388822 0.57696 -0.482721 0.614792 -0.573694 C 0.651819 -0.665691 0.698357 -0.75191 0.753601 -0.833374 C 0.807015 -0.915058 0.869939 -0.990963 0.939521 -1.060505 C 1.009102 -1.130047 1.084316 -1.192422 1.166992 -1.24741 C 1.248644 -1.301593 1.334903 -1.347804 1.425771 -1.386044 C 1.517444 -1.42326 1.610871 -1.451919 1.706859 -1.470997 C 1.80387 -1.49088 1.901393 -1.499573 2.000671 -1.49971 C 2.09812 -1.500066 2.196299 -1.491062 2.293161 -1.471087 C 2.389218 -1.452137 2.483152 -1.423241 2.574159 -1.385423 C 2.665166 -1.347605 2.751417 -1.301084 2.833131 -1.24769 C 2.914626 -1.192467 2.991584 -1.130371 3.061152 -1.060815 C 3.13072 -0.99126 3.192094 -0.91527 3.247102 -0.832625 C 3.30233 -0.751809 3.347535 -0.664777 3.385788 -0.573943 C 3.424042 -0.483109 3.451688 -0.388912 3.470773 -0.292961 C 3.490664 -0.195985 3.49936 -0.0984991 3.500521 -0.0000628993 Z M 3.500521 -0.0000628993 " stroke="#fdb515" stroke-width="1" stroke-opacity="1" stroke-miterlimit="4"/><path stroke-linecap="butt" transform="matrix(1.852546, -2.358247, 2.359131, 1.85324, 326.27591, 30.589217)" fill-opacity="1" fill="#fdb515" fill-rule="nonzero" stroke-linejoin="miter" d="M -0.499916 0.000749859 C -0.499559 0.0981621 -0.510396 0.196085 -0.528549 0.29313 C -0.547506 0.389151 -0.576413 0.48305 -0.614246 0.574023 C -0.652078 0.664996 -0.698616 0.751215 -0.753054 0.833703 C -0.808298 0.915167 -0.869393 0.991292 -0.938975 1.060834 C -1.008556 1.130376 -1.084575 1.191727 -1.166446 1.247738 C -1.248097 1.301922 -1.334357 1.348133 -1.42603 1.385349 C -1.516898 1.423588 -1.610325 1.452247 -1.708142 1.471106 C -1.804129 1.490184 -1.900847 1.499902 -2.000125 1.500039 C -2.098378 1.499371 -2.196558 1.490366 -2.292614 1.471416 C -2.389476 1.451442 -2.482606 1.423569 -2.573613 1.385751 C -2.66462 1.347933 -2.751895 1.302217 -2.83339 1.246995 C -2.915909 1.192577 -2.991038 1.130699 -3.060606 1.061144 C -3.130174 0.991589 -3.192353 0.914574 -3.24758 0.833758 C -3.301784 0.752137 -3.348817 0.664886 -3.385242 0.574272 C -3.423496 0.483438 -3.451142 0.389241 -3.471032 0.292265 C -3.490117 0.196314 -3.500643 0.0986081 -3.499975 0.000391518 C -3.500112 -0.098849 -3.490299 -0.195968 -3.471342 -0.291989 C -3.452165 -0.389838 -3.423258 -0.483737 -3.38645 -0.573906 C -3.348618 -0.664879 -3.30208 -0.751097 -3.247641 -0.833585 C -3.192398 -0.915049 -3.129473 -0.990955 -3.059892 -1.060497 C -2.99031 -1.130039 -2.915096 -1.192414 -2.833445 -1.246597 C -2.751574 -1.302608 -2.66451 -1.347796 -2.573642 -1.386036 C -2.483798 -1.423471 -2.388541 -1.45191 -2.292554 -1.470989 C -2.196567 -1.490067 -2.09802 -1.499565 -2.000571 -1.499921 C -1.901293 -1.500058 -1.804138 -1.490249 -1.708081 -1.471299 C -1.610195 -1.452129 -1.517066 -1.424256 -1.426059 -1.386438 C -1.335052 -1.34862 -1.248801 -1.3021 -1.166282 -1.247682 C -1.084787 -1.192459 -1.009658 -1.130582 -0.939285 -1.060003 C -0.869717 -0.990447 -0.807319 -0.915261 -0.753115 -0.833641 C -0.698107 -0.750996 -0.651878 -0.664768 -0.613624 -0.573934 C -0.576395 -0.482296 -0.547725 -0.388904 -0.528639 -0.292952 C -0.508749 -0.195977 -0.500053 -0.0984907 -0.499916 0.000749859 Z M -0.499916 0.000749859 " stroke="#fdb515" stroke-width="1" stroke-opacity="1" stroke-miterlimit="4"/></svg>