<svg xmlns="http://www.w3.org/2000/svg" xmlns:xlink="http://www.w3.org/1999/xlink" zoomAndPan="magnify" preserveAspectRatio="xMidYMid meet" version="1.0" viewBox="53.49 148.46 267.75 78"><defs><g/><clipPath id="7d1779560d"><path d="M 56.488281 151.464844 L 318.238281 151.464844 L 318.238281 223.464844 L 56.488281 223.464844 Z M 56.488281 151.464844 " clip-rule="nonzero"/></clipPath><clipPath id="0146df3255"><path d="M 187.332031 158.238281 L 311.082031 158.238281 L 311.082031 216.738281 L 187.332031 216.738281 Z M 187.332031 158.238281 " clip-rule="nonzero"/></clipPath></defs><g clip-path="url(#7d1779560d)"><path stroke-linecap="butt" transform="matrix(0.750202, 0, 0, 0.749268, 56.489269, 151.465435)" fill="none" stroke-linejoin="miter" d="M -0.00131637 -0.000788908 L 348.904932 -0.000788908 L 348.904932 96.092971 L -0.00131637 96.092971 L -0.00131637 -0.000788908 " stroke="#000000" stroke-width="6" stroke-opacity="1" stroke-miterlimit="4"/></g><g clip-path="url(#0146df3255)"><path fill="#fdb515" d="M 187.335938 158.238281 L 311.082031 158.238281 L 311.082031 216.738281 L 187.335938 216.738281 L 187.335938 158.238281 " fill-opacity="1" fill-rule="nonzero"/></g><g fill="#000000" fill-opacity="1"><g transform="translate(74.352853, 197.36823)"><g><path d="M 6.601562 0 L 11.011719 0 L 15.476562 -12.722656 L 19.941406 0 L 24.324219 0 L 30.671875 -19.660156 L 25.953125 -19.660156 L 24.070312 -13.679688 L 21.964844 -7.132812 L 19.6875 -13.679688 L 17.582031 -19.660156 L 13.339844 -19.660156 L 11.234375 -13.679688 L 8.988281 -7.21875 L 6.910156 -13.679688 L 5.027344 -19.660156 L 0.28125 -19.660156 Z M 6.601562 0 "/></g></g></g><g fill="#000000" fill-opacity="1"><g transform="translate(107.429692, 197.36823)"><g><path d="M 11.683594 0.394531 C 17.835938 0.394531 22.1875 -3.820312 22.1875 -9.832031 C 22.1875 -15.839844 17.835938 -20.054688 11.683594 -20.054688 C 5.535156 -20.054688 1.207031 -15.839844 1.207031 -9.832031 C 1.207031 -3.820312 5.535156 0.394531 11.683594 0.394531 Z M 5.757812 -9.832031 C 5.757812 -13.371094 8.203125 -15.8125 11.683594 -15.8125 C 15.195312 -15.8125 17.609375 -13.371094 17.609375 -9.832031 C 17.609375 -6.292969 15.195312 -3.847656 11.683594 -3.847656 C 8.203125 -3.847656 5.757812 -6.292969 5.757812 -9.832031 Z M 5.757812 -9.832031 "/></g></g></g><g fill="#000000" fill-opacity="1"><g transform="translate(132.953534, 197.36823)"><g><path d="M 2.359375 0 L 6.824219 0 L 6.824219 -6.125 L 9.773438 -6.125 L 13.285156 0 L 18.453125 0 L 14.378906 -6.824219 C 16.738281 -7.863281 18.117188 -10 18.117188 -12.890625 C 18.117188 -17.078125 15.25 -19.660156 10.757812 -19.660156 L 2.359375 -19.660156 Z M 6.769531 -9.886719 L 6.769531 -15.839844 L 10.167969 -15.839844 C 12.359375 -15.839844 13.59375 -14.773438 13.59375 -12.863281 C 13.59375 -10.953125 12.359375 -9.886719 10.167969 -9.886719 Z M 6.769531 -9.886719 "/></g></g></g><g fill="#000000" fill-opacity="1"><g transform="translate(154.855298, 197.36823)"><g><path d="M 2.359375 0 L 10.140625 0 C 16.347656 0 20.503906 -3.960938 20.503906 -9.832031 C 20.503906 -15.671875 16.347656 -19.660156 10.140625 -19.660156 L 2.359375 -19.660156 Z M 6.824219 -4.101562 L 6.824219 -15.558594 L 10 -15.558594 C 13.539062 -15.558594 15.925781 -13.285156 15.925781 -9.832031 C 15.925781 -6.375 13.539062 -4.101562 10.054688 -4.101562 Z M 6.824219 -4.101562 "/></g></g></g><g fill="#ffffff" fill-opacity="1"><g transform="translate(214.379799, 197.36823)"><g><path d="M 2.078125 0 L 7.753906 0 L 7.753906 -4.859375 L 10.363281 -4.859375 C 15.363281 -4.859375 18.539062 -7.753906 18.539062 -12.273438 C 18.539062 -16.796875 15.363281 -19.660156 10.363281 -19.660156 L 2.078125 -19.660156 Z M 7.695312 -9.605469 L 7.695312 -14.886719 L 9.832031 -14.886719 C 11.710938 -14.886719 12.808594 -13.875 12.808594 -12.246094 C 12.808594 -10.589844 11.710938 -9.605469 9.832031 -9.605469 Z M 7.695312 -9.605469 "/></g></g></g><g fill="#ffffff" fill-opacity="1"><g transform="translate(233.557131, 197.36823)"><g><path d="M 2.078125 0 L 15.785156 0 L 15.785156 -5.253906 L 7.753906 -5.253906 L 7.753906 -19.660156 L 2.078125 -19.660156 Z M 2.078125 0 "/></g></g></g><g fill="#ffffff" fill-opacity="1"><g transform="translate(250.038968, 197.36823)"><g><path d="M 0.140625 0 L 6.152344 0 L 7.21875 -2.78125 L 13.929688 -2.78125 L 15 0 L 21.039062 0 L 13.398438 -19.660156 L 7.78125 -19.660156 Z M 8.398438 -6.9375 L 10.589844 -13.03125 L 12.78125 -6.9375 Z M 8.398438 -6.9375 "/></g></g></g><g fill="#ffffff" fill-opacity="1"><g transform="translate(271.209839, 197.36823)"><g><path d="M 7.304688 0 L 12.949219 0 L 12.949219 -6.851562 L 20.109375 -19.660156 L 13.679688 -19.660156 L 10.113281 -12.609375 L 8.59375 -15.589844 L 6.515625 -19.660156 L 0.140625 -19.660156 L 7.304688 -6.824219 Z M 7.304688 0 "/></g></g></g></svg>